<mxfile host="app.diagrams.net" modified="2024-03-18T19:46:35.556Z" agent="Mozilla/5.0 (Windows NT 10.0; Win64; x64) AppleWebKit/537.36 (KHTML, like Gecko) Chrome/122.0.0.0 Safari/537.36" etag="PdzaIIMzERXN1bMm0B0p" version="24.0.7" type="device">
  <diagram name="Página-1" id="pvVYhp7T_eQyFj-rhW5i">
    <mxGraphModel dx="1354" dy="638" grid="1" gridSize="10" guides="1" tooltips="1" connect="1" arrows="1" fold="1" page="1" pageScale="1" pageWidth="827" pageHeight="1169" math="0" shadow="0">
      <root>
        <mxCell id="0" />
        <mxCell id="1" parent="0" />
        <mxCell id="E532Ht6dsTOZhUJuyHeX-45" value="" style="rounded=0;whiteSpace=wrap;html=1;" parent="1" vertex="1">
          <mxGeometry x="60" y="450" width="180" height="190" as="geometry" />
        </mxCell>
        <mxCell id="E532Ht6dsTOZhUJuyHeX-62" value="" style="rounded=0;whiteSpace=wrap;html=1;" parent="1" vertex="1">
          <mxGeometry x="240" y="740" width="180" height="240" as="geometry" />
        </mxCell>
        <mxCell id="E532Ht6dsTOZhUJuyHeX-40" value="" style="whiteSpace=wrap;html=1;aspect=fixed;" parent="1" vertex="1">
          <mxGeometry x="60" y="130" width="180" height="180" as="geometry" />
        </mxCell>
        <mxCell id="E532Ht6dsTOZhUJuyHeX-1" value="" style="verticalLabelPosition=bottom;verticalAlign=top;html=1;shadow=0;dashed=0;strokeWidth=1;shape=mxgraph.android.phone2;strokeColor=#c0c0c0;" parent="1" vertex="1">
          <mxGeometry x="50" y="20" width="200" height="390" as="geometry" />
        </mxCell>
        <mxCell id="E532Ht6dsTOZhUJuyHeX-3" value="" style="sketch=0;outlineConnect=0;fontColor=#232F3E;gradientColor=none;fillColor=#ED7100;strokeColor=none;dashed=0;verticalLabelPosition=bottom;verticalAlign=top;align=center;html=1;fontSize=12;fontStyle=0;aspect=fixed;pointerEvents=1;shape=mxgraph.aws4.container_registry_image;" parent="1" vertex="1">
          <mxGeometry x="70" y="70" width="50" height="50" as="geometry" />
        </mxCell>
        <mxCell id="E532Ht6dsTOZhUJuyHeX-18" value="Saiba +" style="rounded=1;whiteSpace=wrap;html=1;" parent="1" vertex="1">
          <mxGeometry x="105" y="210" width="90" height="30" as="geometry" />
        </mxCell>
        <mxCell id="E532Ht6dsTOZhUJuyHeX-36" value="" style="line;strokeWidth=4;html=1;perimeter=backbonePerimeter;points=[];outlineConnect=0;" parent="1" vertex="1">
          <mxGeometry x="200" y="80" width="30" height="10" as="geometry" />
        </mxCell>
        <mxCell id="E532Ht6dsTOZhUJuyHeX-37" value="" style="line;strokeWidth=4;html=1;perimeter=backbonePerimeter;points=[];outlineConnect=0;" parent="1" vertex="1">
          <mxGeometry x="200" y="100" width="30" height="10" as="geometry" />
        </mxCell>
        <mxCell id="E532Ht6dsTOZhUJuyHeX-38" value="" style="line;strokeWidth=4;html=1;perimeter=backbonePerimeter;points=[];outlineConnect=0;" parent="1" vertex="1">
          <mxGeometry x="220" y="90" width="10" height="10" as="geometry" />
        </mxCell>
        <mxCell id="E532Ht6dsTOZhUJuyHeX-39" value="" style="line;strokeWidth=4;html=1;perimeter=backbonePerimeter;points=[];outlineConnect=0;" parent="1" vertex="1">
          <mxGeometry x="200" y="90" width="10" height="10" as="geometry" />
        </mxCell>
        <mxCell id="E532Ht6dsTOZhUJuyHeX-41" value="Banner" style="text;html=1;align=center;verticalAlign=middle;whiteSpace=wrap;rounded=0;" parent="1" vertex="1">
          <mxGeometry x="120" y="180" width="60" height="30" as="geometry" />
        </mxCell>
        <mxCell id="E532Ht6dsTOZhUJuyHeX-42" value="" style="rounded=0;whiteSpace=wrap;html=1;" parent="1" vertex="1">
          <mxGeometry x="60" y="310" width="180" height="140" as="geometry" />
        </mxCell>
        <mxCell id="E532Ht6dsTOZhUJuyHeX-7" value="&lt;h1 style=&quot;margin-top: 0px;&quot;&gt;Novas Tecnologias&lt;/h1&gt;&lt;p&gt;inovando na tecnologia&lt;/p&gt;" style="text;html=1;whiteSpace=wrap;overflow=hidden;rounded=0;" parent="1" vertex="1">
          <mxGeometry x="70" y="460" width="150" height="90" as="geometry" />
        </mxCell>
        <mxCell id="E532Ht6dsTOZhUJuyHeX-43" value="Banner" style="text;html=1;align=center;verticalAlign=middle;whiteSpace=wrap;rounded=0;" parent="1" vertex="1">
          <mxGeometry x="180" y="450" width="60" height="30" as="geometry" />
        </mxCell>
        <mxCell id="E532Ht6dsTOZhUJuyHeX-44" value="Veja +" style="rounded=1;whiteSpace=wrap;html=1;" parent="1" vertex="1">
          <mxGeometry x="105" y="570" width="90" height="30" as="geometry" />
        </mxCell>
        <mxCell id="E532Ht6dsTOZhUJuyHeX-48" value="Pesquise sobre sua peça&amp;nbsp;" style="text;html=1;align=center;verticalAlign=middle;whiteSpace=wrap;rounded=0;" parent="1" vertex="1">
          <mxGeometry x="105" y="330" width="90" height="50" as="geometry" />
        </mxCell>
        <mxCell id="E532Ht6dsTOZhUJuyHeX-49" value="Clique aqui" style="rounded=1;whiteSpace=wrap;html=1;" parent="1" vertex="1">
          <mxGeometry x="90" y="380" width="120" height="30" as="geometry" />
        </mxCell>
        <mxCell id="E532Ht6dsTOZhUJuyHeX-51" value="" style="rounded=0;whiteSpace=wrap;html=1;" parent="1" vertex="1">
          <mxGeometry x="60" y="640" width="180" height="100" as="geometry" />
        </mxCell>
        <mxCell id="E532Ht6dsTOZhUJuyHeX-52" value="&lt;h1 style=&quot;margin-top: 0px;&quot;&gt;&lt;span style=&quot;background-color: initial;&quot;&gt;Saiba + sobre sua BMW&lt;/span&gt;&lt;br&gt;&lt;/h1&gt;" style="text;html=1;whiteSpace=wrap;overflow=hidden;rounded=0;" parent="1" vertex="1">
          <mxGeometry x="70" y="640" width="150" height="90" as="geometry" />
        </mxCell>
        <mxCell id="E532Ht6dsTOZhUJuyHeX-53" style="edgeStyle=orthogonalEdgeStyle;rounded=0;orthogonalLoop=1;jettySize=auto;html=1;exitX=0.5;exitY=1;exitDx=0;exitDy=0;" parent="1" source="E532Ht6dsTOZhUJuyHeX-51" target="E532Ht6dsTOZhUJuyHeX-51" edge="1">
          <mxGeometry relative="1" as="geometry" />
        </mxCell>
        <mxCell id="E532Ht6dsTOZhUJuyHeX-54" style="edgeStyle=orthogonalEdgeStyle;rounded=0;orthogonalLoop=1;jettySize=auto;html=1;exitX=0.5;exitY=1;exitDx=0;exitDy=0;" parent="1" source="E532Ht6dsTOZhUJuyHeX-51" target="E532Ht6dsTOZhUJuyHeX-51" edge="1">
          <mxGeometry relative="1" as="geometry" />
        </mxCell>
        <mxCell id="E532Ht6dsTOZhUJuyHeX-55" value="" style="rounded=0;whiteSpace=wrap;html=1;" parent="1" vertex="1">
          <mxGeometry x="60" y="740" width="180" height="240" as="geometry" />
        </mxCell>
        <mxCell id="E532Ht6dsTOZhUJuyHeX-57" value="" style="rounded=1;whiteSpace=wrap;html=1;" parent="1" vertex="1">
          <mxGeometry x="90" y="750" width="130" height="200" as="geometry" />
        </mxCell>
        <mxCell id="E532Ht6dsTOZhUJuyHeX-56" value="" style="sketch=0;outlineConnect=0;fontColor=#232F3E;gradientColor=none;fillColor=#ED7100;strokeColor=none;dashed=0;verticalLabelPosition=bottom;verticalAlign=top;align=center;html=1;fontSize=12;fontStyle=0;aspect=fixed;pointerEvents=1;shape=mxgraph.aws4.container_registry_image;" parent="1" vertex="1">
          <mxGeometry x="115" y="760" width="80" height="80" as="geometry" />
        </mxCell>
        <mxCell id="E532Ht6dsTOZhUJuyHeX-58" value="&lt;h1 style=&quot;margin-top: 0px;&quot;&gt;Heading&lt;/h1&gt;&lt;p&gt;Lorem ipsum dolor sit amet, consectetur adipisicing elit, sed do eiusmod tempor incididunt ut labore et dolore magna aliqua.&lt;/p&gt;" style="text;html=1;whiteSpace=wrap;overflow=hidden;rounded=0;" parent="1" vertex="1">
          <mxGeometry x="100" y="840" width="110" height="100" as="geometry" />
        </mxCell>
        <mxCell id="E532Ht6dsTOZhUJuyHeX-59" value="" style="rounded=1;whiteSpace=wrap;html=1;" parent="1" vertex="1">
          <mxGeometry x="270" y="750" width="130" height="200" as="geometry" />
        </mxCell>
        <mxCell id="E532Ht6dsTOZhUJuyHeX-60" value="" style="sketch=0;outlineConnect=0;fontColor=#232F3E;gradientColor=none;fillColor=#ED7100;strokeColor=none;dashed=0;verticalLabelPosition=bottom;verticalAlign=top;align=center;html=1;fontSize=12;fontStyle=0;aspect=fixed;pointerEvents=1;shape=mxgraph.aws4.container_registry_image;" parent="1" vertex="1">
          <mxGeometry x="295" y="760" width="80" height="80" as="geometry" />
        </mxCell>
        <mxCell id="E532Ht6dsTOZhUJuyHeX-61" value="&lt;h1 style=&quot;margin-top: 0px;&quot;&gt;Heading&lt;/h1&gt;&lt;p&gt;Lorem ipsum dolor sit amet, consectetur adipisicing elit, sed do eiusmod tempor incididunt ut labore et dolore magna aliqua.&lt;/p&gt;" style="text;html=1;whiteSpace=wrap;overflow=hidden;rounded=0;" parent="1" vertex="1">
          <mxGeometry x="280" y="840" width="110" height="100" as="geometry" />
        </mxCell>
        <mxCell id="E532Ht6dsTOZhUJuyHeX-63" value="" style="rounded=0;whiteSpace=wrap;html=1;" parent="1" vertex="1">
          <mxGeometry x="420" y="740" width="180" height="240" as="geometry" />
        </mxCell>
        <mxCell id="E532Ht6dsTOZhUJuyHeX-64" value="" style="rounded=1;whiteSpace=wrap;html=1;" parent="1" vertex="1">
          <mxGeometry x="450" y="750" width="130" height="200" as="geometry" />
        </mxCell>
        <mxCell id="E532Ht6dsTOZhUJuyHeX-65" value="" style="sketch=0;outlineConnect=0;fontColor=#232F3E;gradientColor=none;fillColor=#ED7100;strokeColor=none;dashed=0;verticalLabelPosition=bottom;verticalAlign=top;align=center;html=1;fontSize=12;fontStyle=0;aspect=fixed;pointerEvents=1;shape=mxgraph.aws4.container_registry_image;" parent="1" vertex="1">
          <mxGeometry x="475" y="760" width="80" height="80" as="geometry" />
        </mxCell>
        <mxCell id="E532Ht6dsTOZhUJuyHeX-66" value="&lt;h1 style=&quot;margin-top: 0px;&quot;&gt;Heading&lt;/h1&gt;&lt;p&gt;Lorem ipsum dolor sit amet, consectetur adipisicing elit, sed do eiusmod tempor incididunt ut labore et dolore magna aliqua.&lt;/p&gt;" style="text;html=1;whiteSpace=wrap;overflow=hidden;rounded=0;" parent="1" vertex="1">
          <mxGeometry x="460" y="840" width="110" height="100" as="geometry" />
        </mxCell>
        <mxCell id="E532Ht6dsTOZhUJuyHeX-67" value="" style="rounded=0;whiteSpace=wrap;html=1;" parent="1" vertex="1">
          <mxGeometry x="600" y="740" width="180" height="240" as="geometry" />
        </mxCell>
        <mxCell id="E532Ht6dsTOZhUJuyHeX-68" value="" style="rounded=1;whiteSpace=wrap;html=1;" parent="1" vertex="1">
          <mxGeometry x="630" y="750" width="130" height="200" as="geometry" />
        </mxCell>
        <mxCell id="E532Ht6dsTOZhUJuyHeX-69" value="" style="sketch=0;outlineConnect=0;fontColor=#232F3E;gradientColor=none;fillColor=#ED7100;strokeColor=none;dashed=0;verticalLabelPosition=bottom;verticalAlign=top;align=center;html=1;fontSize=12;fontStyle=0;aspect=fixed;pointerEvents=1;shape=mxgraph.aws4.container_registry_image;" parent="1" vertex="1">
          <mxGeometry x="655" y="760" width="80" height="80" as="geometry" />
        </mxCell>
        <mxCell id="E532Ht6dsTOZhUJuyHeX-70" value="&lt;h1 style=&quot;margin-top: 0px;&quot;&gt;Heading&lt;/h1&gt;&lt;p&gt;Lorem ipsum dolor sit amet, consectetur adipisicing elit, sed do eiusmod tempor incididunt ut labore et dolore magna aliqua.&lt;/p&gt;" style="text;html=1;whiteSpace=wrap;overflow=hidden;rounded=0;" parent="1" vertex="1">
          <mxGeometry x="640" y="840" width="110" height="100" as="geometry" />
        </mxCell>
        <mxCell id="E532Ht6dsTOZhUJuyHeX-71" value="" style="strokeWidth=1;shadow=0;dashed=0;align=center;html=1;shape=mxgraph.mockup.containers.browserWindow;rSize=0;strokeColor=#666666;strokeColor2=#008cff;strokeColor3=#c4c4c4;mainText=,;recursiveResize=0;" parent="1" vertex="1">
          <mxGeometry y="1140" width="820" height="410" as="geometry" />
        </mxCell>
        <mxCell id="E532Ht6dsTOZhUJuyHeX-81" value="" style="rounded=0;whiteSpace=wrap;html=1;" parent="E532Ht6dsTOZhUJuyHeX-71" vertex="1">
          <mxGeometry y="170" width="820" height="240" as="geometry" />
        </mxCell>
        <mxCell id="E532Ht6dsTOZhUJuyHeX-72" value="Page 1" style="strokeWidth=1;shadow=0;dashed=0;align=center;html=1;shape=mxgraph.mockup.containers.anchor;fontSize=17;fontColor=#666666;align=left;whiteSpace=wrap;" parent="E532Ht6dsTOZhUJuyHeX-71" vertex="1">
          <mxGeometry x="60" y="12" width="110" height="26" as="geometry" />
        </mxCell>
        <mxCell id="E532Ht6dsTOZhUJuyHeX-73" value="https://www.draw.io" style="strokeWidth=1;shadow=0;dashed=0;align=center;html=1;shape=mxgraph.mockup.containers.anchor;rSize=0;fontSize=17;fontColor=#666666;align=left;" parent="E532Ht6dsTOZhUJuyHeX-71" vertex="1">
          <mxGeometry x="130" y="60" width="250" height="26" as="geometry" />
        </mxCell>
        <mxCell id="E532Ht6dsTOZhUJuyHeX-80" value="" style="sketch=0;outlineConnect=0;fontColor=#232F3E;gradientColor=none;fillColor=#ED7100;strokeColor=none;dashed=0;verticalLabelPosition=bottom;verticalAlign=top;align=center;html=1;fontSize=12;fontStyle=0;aspect=fixed;pointerEvents=1;shape=mxgraph.aws4.container_registry_image;" parent="E532Ht6dsTOZhUJuyHeX-71" vertex="1">
          <mxGeometry x="50" y="130" width="80" height="80" as="geometry" />
        </mxCell>
        <mxCell id="E532Ht6dsTOZhUJuyHeX-83" value="Home" style="text;html=1;align=center;verticalAlign=middle;whiteSpace=wrap;rounded=0;" parent="E532Ht6dsTOZhUJuyHeX-71" vertex="1">
          <mxGeometry x="460" y="130" width="60" height="30" as="geometry" />
        </mxCell>
        <mxCell id="E532Ht6dsTOZhUJuyHeX-84" value="Sob&lt;span style=&quot;text-wrap: nowrap; color: rgba(0, 0, 0, 0); font-family: monospace; font-size: 0px; text-align: start;&quot;&gt;%3CmxGraphModel%3E%3Croot%3E%3CmxCell%20id%3D%220%22%2F%3E%3CmxCell%20id%3D%221%22%20parent%3D%220%22%2F%3E%3CmxCell%20id%3D%222%22%20value%3D%22Home%22%20style%3D%22text%3Bhtml%3D1%3Balign%3Dcenter%3BverticalAlign%3Dmiddle%3BwhiteSpace%3Dwrap%3Brounded%3D0%3B%22%20vertex%3D%221%22%20parent%3D%221%22%3E%3CmxGeometry%20x%3D%22470%22%20y%3D%221270%22%20width%3D%2260%22%20height%3D%2230%22%20as%3D%22geometry%22%2F%3E%3C%2FmxCell%3E%3C%2Froot%3E%3C%2FmxGraphModel%3E&lt;/span&gt;re&lt;span style=&quot;text-wrap: nowrap; color: rgba(0, 0, 0, 0); font-family: monospace; font-size: 0px; text-align: start;&quot;&gt;%3CmxGraphModel%3E%3Croot%3E%3CmxCell%20id%3D%220%22%2F%3E%3CmxCell%20id%3D%221%22%20parent%3D%220%22%2F%3E%3CmxCell%20id%3D%222%22%20value%3D%22Home%22%20style%3D%22text%3Bhtml%3D1%3Balign%3Dcenter%3BverticalAlign%3Dmiddle%3BwhiteSpace%3Dwrap%3Brounded%3D0%3B%22%20vertex%3D%221%22%20parent%3D%221%22%3E%3CmxGeometry%20x%3D%22470%22%20y%3D%221270%22%20width%3D%2260%22%20height%3D%2230%22%20as%3D%22geometry%22%2F%3E%3C%2FmxCell%3E%3C%2Froot%3E%3C%2FmxGraphModel%3E&lt;/span&gt;" style="text;html=1;align=center;verticalAlign=middle;whiteSpace=wrap;rounded=0;" parent="E532Ht6dsTOZhUJuyHeX-71" vertex="1">
          <mxGeometry x="510" y="130" width="60" height="30" as="geometry" />
        </mxCell>
        <mxCell id="E532Ht6dsTOZhUJuyHeX-85" value="&lt;div style=&quot;text-align: center;&quot;&gt;&lt;span style=&quot;background-color: initial;&quot;&gt;Descubra a BMW&lt;/span&gt;&lt;/div&gt;" style="text;whiteSpace=wrap;html=1;" parent="E532Ht6dsTOZhUJuyHeX-71" vertex="1">
          <mxGeometry x="570" y="130" width="100" height="40" as="geometry" />
        </mxCell>
        <mxCell id="E532Ht6dsTOZhUJuyHeX-86" value="&lt;div style=&quot;text-align: center;&quot;&gt;&lt;span style=&quot;background-color: initial;&quot;&gt;Manual do Proprietário&lt;/span&gt;&lt;/div&gt;" style="text;whiteSpace=wrap;html=1;" parent="E532Ht6dsTOZhUJuyHeX-71" vertex="1">
          <mxGeometry x="680" y="130" width="130" height="40" as="geometry" />
        </mxCell>
        <mxCell id="E532Ht6dsTOZhUJuyHeX-74" value="" style="rounded=0;whiteSpace=wrap;html=1;" parent="1" vertex="1">
          <mxGeometry x="60" y="980" width="180" height="60" as="geometry" />
        </mxCell>
        <mxCell id="E532Ht6dsTOZhUJuyHeX-75" value="Copyright" style="text;html=1;align=center;verticalAlign=middle;whiteSpace=wrap;rounded=0;" parent="1" vertex="1">
          <mxGeometry x="65" y="995" width="60" height="30" as="geometry" />
        </mxCell>
        <mxCell id="E532Ht6dsTOZhUJuyHeX-76" value="" style="sketch=0;outlineConnect=0;fontColor=#232F3E;gradientColor=none;fillColor=#ED7100;strokeColor=none;dashed=0;verticalLabelPosition=bottom;verticalAlign=top;align=center;html=1;fontSize=12;fontStyle=0;aspect=fixed;pointerEvents=1;shape=mxgraph.aws4.container_registry_image;" parent="1" vertex="1">
          <mxGeometry x="200" y="995" width="30" height="30" as="geometry" />
        </mxCell>
        <mxCell id="E532Ht6dsTOZhUJuyHeX-78" value="" style="sketch=0;outlineConnect=0;fontColor=#232F3E;gradientColor=none;fillColor=#ED7100;strokeColor=none;dashed=0;verticalLabelPosition=bottom;verticalAlign=top;align=center;html=1;fontSize=12;fontStyle=0;aspect=fixed;pointerEvents=1;shape=mxgraph.aws4.container_registry_image;" parent="1" vertex="1">
          <mxGeometry x="165" y="995" width="30" height="30" as="geometry" />
        </mxCell>
        <mxCell id="E532Ht6dsTOZhUJuyHeX-79" value="" style="sketch=0;outlineConnect=0;fontColor=#232F3E;gradientColor=none;fillColor=#ED7100;strokeColor=none;dashed=0;verticalLabelPosition=bottom;verticalAlign=top;align=center;html=1;fontSize=12;fontStyle=0;aspect=fixed;pointerEvents=1;shape=mxgraph.aws4.container_registry_image;" parent="1" vertex="1">
          <mxGeometry x="130" y="995" width="30" height="30" as="geometry" />
        </mxCell>
      </root>
    </mxGraphModel>
  </diagram>
</mxfile>
